<svg xmlns="http://www.w3.org/2000/svg" width="188.8" height="60" viewBox="0 0 188.8 60"><g transform="translate(-93.1 -88.05)"><g transform="translate(-46.5 -87.35)"><g transform="translate(139.6 213.165)"><path d="M205.94,589.3c-.074.037-.148.075-.231.112l-.046.028a16.65,16.65,0,0,1-5.6,1.629c-.037,0-.065.009-.1.009a.571.571,0,0,1-.536-.344,11.421,11.421,0,0,1-1.155-3.174c-.092-.428-.176-.856-.268-1.3l-.111-.558-.1.186a27.872,27.872,0,0,1-6.59,8.4l-.028.028-.028-.028c-.287-.372-1-1.34-1.2-1.647l-.046-.074-.342.326.037.047c.2.251.434.54.665.828.2.242.388.484.564.707l.028.037c.4.5.813,1.033,1.183,1.517.231.307.471.614.712.912l.009.009c.564.735,1.155,1.489,1.747,2.215a.453.453,0,0,1,.129.3.435.435,0,0,1-.2.261,37.877,37.877,0,0,1-9.02,5.286,34.316,34.316,0,0,1-11.645,2.559c-.453.019-.9.028-1.34.028a31.733,31.733,0,0,1-7.791-.94A34.606,34.606,0,0,1,152.28,600.8c-.3-.214-.61-.456-.906-.679l-.407-.326c.286-.363,1.756-2.3,2.477-3.257.8-1.061,1.71-2.271,2.5-3.295l.037-.056-.277-.223-.037.065c-.277.382-.675.9-1,1.322l-.139.186-.028-.028a27.214,27.214,0,0,1-6.553-8.386l-.111-.2-.037.214c-.028.14-.037.27-.055.391a11.912,11.912,0,0,1-1.4,4.477,3.464,3.464,0,0,0-.2.382c-.444-.037-3.706-.363-5.36-1.387a2.9,2.9,0,0,0-.545-.251,1.8,1.8,0,0,1-.277-.121l-.351-.149.111.2a45.53,45.53,0,0,0,5.786,8.414,37.068,37.068,0,0,0,7.893,6.71l.055.037.323-.475c.222-.335.453-.661.665-.987.185-.27.259-.372.379-.372a.9.9,0,0,1,.416.2,33.724,33.724,0,0,0,17.107,4.737c.647,0,1.294-.028,1.932-.056a35.189,35.189,0,0,0,7.477-1.266,36.617,36.617,0,0,0,6.174-2.392c1.063-.531,2.033-1.07,2.985-1.666l.028-.019,1.46,2.085.055-.037c5.462-3.425,9.88-8.4,13.521-15.189l.111-.2Zm-13.022,14.584c.166-.307.434-.782.471-.875q.208-.419.444-.838c.092-.168.176-.335.268-.5.323-.614.665-1.256,1.017-1.871a.421.421,0,0,0-.055-.558c-.943-1.191-1.876-2.429-2.791-3.611l-.471-.624c-.065-.084-.129-.186-.194-.289-.037-.037-.065-.1-.111-.149l-.018-.028.028-.019a26.27,26.27,0,0,0,6.091-7.474l.148-.261c.037.261.083.651.111.754.074.316.157.652.259.968a11.129,11.129,0,0,0,1.2,2.736.376.376,0,0,0,.444.223,16.563,16.563,0,0,0,5.065-1.219c.037-.019.323-.177.555-.3l-.222.363a39.472,39.472,0,0,1-7.079,9.465A38.476,38.476,0,0,1,192.918,603.886Zm1.627-3.788-2.089,3.918-1.155-1.675.037-.019C192.308,601.717,193.731,600.684,194.545,600.1Zm-53.567-9.623a16.162,16.162,0,0,0,4.427,1.135c.129.019.878.074.906.074h.037l.028-.037.129-.2a11.45,11.45,0,0,0,1.488-3.788.183.183,0,0,0,.009-.075c.009-.065.037-.382.083-.614l.129.288v.009c.092.14.176.289.259.437.185.307.36.614.545.9a24.68,24.68,0,0,0,5.037,5.91c.009,0,.166.13.3.242-.25.335-1.506,1.992-2.024,2.68-.508.661-1.026,1.35-1.553,2.02a.455.455,0,0,0-.055.6c.462.828.906,1.685,1.349,2.5.148.289.3.558.453.847.028.037.148.289.268.475l-.333-.242a34.887,34.887,0,0,1-6.682-5.742,72.481,72.481,0,0,1-5.4-7.771C140.968,590.465,140.977,590.474,140.977,590.474Zm13.494,12.22.028.019-1.174,1.526-2.089-3.881.4.372.074.047C152.632,601.485,153.584,602.108,154.471,602.695Z" transform="translate(-139.6 -585.7)" fill="#101720"/></g><g transform="translate(146.888 175.4)"><path d="M243.652,175.723a25.4,25.4,0,1,1-9.9,2.012,24.87,24.87,0,0,1,9.9-2.012m0-.323a25.784,25.784,0,1,0,25.77,25.784,25.765,25.765,0,0,0-25.77-25.784Z" transform="translate(-217.9 -175.4)" fill="#101720"/></g><g transform="translate(170.956 180.696)"><path d="M481.5,232.8s.009,1.992.009,2.829c0,1.294.689,1.554,1.052,1.694a.1.1,0,0,1-.019.186h-2.922a.1.1,0,0,1-.019-.186c.372-.13,1.052-.391,1.052-1.694,0-.838.009-2.829.009-2.829Z" transform="translate(-479.491 -232.753)" fill="#9e4e26"/><path d="M482.05,237.112h-2.941a.13.13,0,0,1-.121-.121.164.164,0,0,1,.093-.158c.335-.121,1.024-.363,1.024-1.647,0-.828.009-2.811.009-2.829V232.3h.949v.047c0,.019.009,2,.009,2.829,0,1.266.661,1.508,1.024,1.638a.151.151,0,0,1,.1.14.278.278,0,0,1-.149.158ZM479.119,237h2.922c.019-.009.037-.028.037-.037s0-.028-.028-.037c-.382-.14-1.089-.41-1.089-1.75,0-.754-.009-2.448-.009-2.773h-.726c0,.326-.009,2.02-.009,2.773,0,1.359-.735,1.619-1.089,1.75a.041.041,0,0,0-.028.037C479.091,236.972,479.091,236.991,479.119,237Z" transform="translate(-478.987 -232.3)" fill="#101720"/></g><g transform="translate(169.765 177.196)"><path d="M467.773,199.931a2.981,2.981,0,0,1,.056-1.7l.028-.084-.084.037a2.228,2.228,0,0,0-.9.884,3.608,3.608,0,0,1-.214.307,3.526,3.526,0,0,1,.614-1.275c.065-.1.13-.2.186-.289l.037-.065-.084.009a1.783,1.783,0,0,0-1.21.856c.084-.614.754-1.014,1.173-1.266a2.425,2.425,0,0,0,.27-.168l.1-.074h-.13a3.919,3.919,0,0,0-1.377.41,3.755,3.755,0,0,1,1.526-.9l.14-.047-.13-.037a4.2,4.2,0,0,0-.586-.047,2.069,2.069,0,0,0-.577.074,1.549,1.549,0,0,1,1.191-.391c.093,0,.2,0,.316.009l.112.009-.065-.074a3.359,3.359,0,0,0-.912-.651c-.037-.028-.084-.037-.13-.074a.73.73,0,0,1,.2-.019,2.239,2.239,0,0,1,1.294.614l.056.037.009-.074a4.629,4.629,0,0,1,.307-1.238,3.547,3.547,0,0,1,.335.912c.037.13.074.289.121.419l.037.084.047-.074a1.641,1.641,0,0,1,1.35-.707h.037a2.452,2.452,0,0,0-1.005.782l-.037.065h.084a.615.615,0,0,0,.13-.009c.112-.009.214-.009.326-.009a1.31,1.31,0,0,1,1.089.4,4.377,4.377,0,0,0-.735-.056,1.3,1.3,0,0,0-.521.084l-.093.047.112.028a3.087,3.087,0,0,1,1.61.717,3.468,3.468,0,0,0-1.182-.307h-.084l-.121.009.093.065a.849.849,0,0,1,.121.093,3.341,3.341,0,0,1,1.219,1.247,10.529,10.529,0,0,0-1.247-.763l-.074-.019.037.065a3.2,3.2,0,0,0,.326.558,2.17,2.17,0,0,1,.456.977c-.13-.121-.242-.261-.372-.4a3.026,3.026,0,0,0-.707-.67l-.074-.037.019.093a3.535,3.535,0,0,1,.019,1.619c-.121-.661-.614-1.657-1.266-1.657s-.875.642-.959.884c-.047.14-.093.289-.13.437A1.147,1.147,0,0,0,467.773,199.931Z" transform="translate(-466.2 -194.7)" fill="#1f7f4f"/></g><g transform="translate(169.672 177.085)"><path d="M468.057,193.686a3.7,3.7,0,0,1,.289.838c.037.13.074.289.121.419l.047.177.1-.149a1.589,1.589,0,0,1,1.135-.689,2.463,2.463,0,0,0-.828.7l-.1.14.177-.009a.614.614,0,0,0,.13-.009c.112-.009.214-.009.326-.009a1.312,1.312,0,0,1,.968.3,4.272,4.272,0,0,0-.614-.037,1.189,1.189,0,0,0-.54.093l-.2.121.214.037a3.674,3.674,0,0,1,1.433.558,3.041,3.041,0,0,0-.987-.214h-.084l-.214.028.177.13c.037.028.074.047.13.093a4.025,4.025,0,0,1,1.145,1.089,11.414,11.414,0,0,0-1.135-.689l-.149-.028.047.14a2.823,2.823,0,0,0,.335.568,2.558,2.558,0,0,1,.428.838l-.279-.307a2.923,2.923,0,0,0-.717-.679l-.158-.093.037.186a3.964,3.964,0,0,1,.056,1.433c-.168-.661-.651-1.517-1.266-1.517-.67,0-.912.661-1.005.912-.047.14-.093.289-.13.437a1.442,1.442,0,0,0-.056.214,2.981,2.981,0,0,1,.1-1.545l.047-.168-.168.065a2.207,2.207,0,0,0-.921.9c-.037.037-.056.093-.093.13a5,5,0,0,1,.558-1.061c.065-.1.13-.2.186-.289l.084-.13-.158.009a1.651,1.651,0,0,0-1.117.7A2.477,2.477,0,0,1,466.5,196.3a2.421,2.421,0,0,0,.27-.168l.2-.149h-.251a3.726,3.726,0,0,0-1.229.344,4.862,4.862,0,0,1,1.387-.745l.289-.112-.3-.056a4.246,4.246,0,0,0-.6-.047,2.673,2.673,0,0,0-.41.037,1.613,1.613,0,0,1,1.024-.27c.093,0,.2,0,.316.009l.2.009-.13-.149a3.487,3.487,0,0,0-.912-.661c-.009,0-.009-.009-.019-.009h.065a2.235,2.235,0,0,1,1.266.6l.121.093.028-.14a2.827,2.827,0,0,1,.223-1.21m-.019-.186a4.121,4.121,0,0,0-.354,1.312,2.335,2.335,0,0,0-1.322-.614,1.945,1.945,0,0,0-.316.037,4.509,4.509,0,0,1,1.117.782c-.121-.009-.214-.009-.316-.009a1.529,1.529,0,0,0-1.359.558,1.506,1.506,0,0,1,.745-.149,3.819,3.819,0,0,1,.577.047c-.447.168-1.433.558-1.61,1.033a4.386,4.386,0,0,1,1.471-.456h.009c-.289.223-1.489.7-1.452,1.61a1.824,1.824,0,0,1,1.266-.977,4.041,4.041,0,0,0-.819,1.731c.391-.465.651-1.089,1.191-1.294a2.935,2.935,0,0,0-.019,1.852c.121-.3.177-.614.289-.9.093-.251.316-.856.921-.856h0c.67,0,1.191,1.135,1.247,1.787a3.241,3.241,0,0,0,.037-1.815c.475.279.754.81,1.135,1.117.047-.558-.577-1.163-.782-1.647a13.2,13.2,0,0,1,1.331.819c-.13-.651-1.173-1.294-1.4-1.471h.074a3.2,3.2,0,0,1,1.284.372c-.242-.512-1.247-.754-1.7-.866a1.338,1.338,0,0,1,.493-.074,5.258,5.258,0,0,1,.828.074,1.288,1.288,0,0,0-1.182-.5c-.149,0-.307.009-.465.019a2.515,2.515,0,0,1,1.154-.819.7.7,0,0,0-.214-.028,1.668,1.668,0,0,0-1.368.735,4.834,4.834,0,0,0-.493-1.405Z" transform="translate(-465.2 -193.5)" fill="#101720"/></g><g transform="translate(166.483 184.868)"><path d="M438.582,281.81c.14.186.279.354-.037.512-.149.074-.121.214-.028.316.121.149.223.047.307-.037.084-.112.149-.223.242-.363.2.14.363.289.549.41a1.044,1.044,0,0,0,.949.13.573.573,0,0,0,.354-.679c-.112-.335-.344-.2-.558-.149a.837.837,0,0,1-.949-.214c.13-.2.456-.307.289-.624-.037-.065-.093-.14-.177-.121-.279.093-.279.372-.382.624-.261-.307-.484-.6-.745-.856a7.937,7.937,0,0,0-3.835-2.429,3.444,3.444,0,0,0-2.662.419c.261,0,.726-.047.977-.047a5.834,5.834,0,0,1,3.425,1.07A21.112,21.112,0,0,1,438.582,281.81Z" transform="translate(-431.798 -278.208)" fill="#f8cd6d"/><path d="M439.251,282.587a1.184,1.184,0,0,1-.642-.2,3.732,3.732,0,0,1-.382-.288,1.591,1.591,0,0,0-.13-.1,1.385,1.385,0,0,0-.074.121c-.047.074-.093.14-.14.2a.288.288,0,0,1-.2.14.238.238,0,0,1-.168-.093.3.3,0,0,1-.084-.242.206.206,0,0,1,.121-.14.28.28,0,0,0,.168-.158c.019-.084-.065-.186-.14-.289a19.732,19.732,0,0,0-2.3-2.029,5.837,5.837,0,0,0-3.4-1.061c-.121,0-.3.019-.475.028s-.372.028-.5.028h-.1l.074-.074a3.552,3.552,0,0,1,2.7-.437,7.934,7.934,0,0,1,3.862,2.438c.2.2.372.409.568.642.037.047.093.112.13.158a.6.6,0,0,0,.037-.121c.056-.2.121-.382.344-.456.121-.047.2.084.223.13.13.261-.028.409-.149.54a1.264,1.264,0,0,0-.112.112.807.807,0,0,0,.884.177l.112-.028c.186-.047.41-.112.512.2a.622.622,0,0,1-.372.735A1.072,1.072,0,0,1,439.251,282.587Zm-1.182-.707.037.028c.056.037.121.093.168.13a3.525,3.525,0,0,0,.372.279,1,1,0,0,0,.9.13.527.527,0,0,0,.326-.614c-.074-.242-.2-.2-.4-.149-.037.009-.074.019-.121.028a.9.9,0,0,1-1-.233l-.028-.028.019-.028a1.13,1.13,0,0,1,.14-.158c.121-.121.242-.223.13-.428-.047-.093-.084-.112-.121-.093-.186.056-.223.2-.289.4-.019.065-.037.13-.065.2l-.028.065-.047-.056c-.056-.074-.121-.14-.186-.214-.2-.223-.372-.437-.558-.633a7.829,7.829,0,0,0-3.816-2.429,3.711,3.711,0,0,0-2.522.326l.372-.028c.177-.019.363-.028.484-.028a5.82,5.82,0,0,1,3.444,1.08,19.381,19.381,0,0,1,2.317,2.048h0c.093.121.186.233.158.363a.327.327,0,0,1-.2.214c-.037.028-.065.047-.074.084a.241.241,0,0,0,.065.168c.037.037.065.065.093.065h0q.056,0,.14-.112a.862.862,0,0,0,.13-.2c.037-.047.065-.1.112-.158Z" transform="translate(-430.8 -277.907)" fill="#101720"/></g><g transform="translate(169.596 184.896)"><path d="M467.318,282.109c-.14.186-.279.354.037.512.149.074.121.214.028.316-.121.149-.223.047-.307-.037-.084-.112-.149-.223-.242-.363-.2.14-.363.289-.549.409a1.044,1.044,0,0,1-.949.13.573.573,0,0,1-.354-.679c.112-.335.344-.2.558-.149a.837.837,0,0,0,.949-.214c-.13-.2-.456-.307-.289-.624.037-.065.093-.14.177-.121.279.093.279.372.382.624.261-.307.484-.6.745-.856a7.937,7.937,0,0,1,3.835-2.429,3.444,3.444,0,0,1,2.662.419c-.261,0-.726-.047-.977-.047a5.834,5.834,0,0,0-3.425,1.07A22.05,22.05,0,0,0,467.318,282.109Z" transform="translate(-464.919 -278.509)" fill="#f8cd6d"/><path d="M465.257,282.893a1.012,1.012,0,0,1-.335-.056.617.617,0,0,1-.372-.735c.1-.316.326-.261.512-.2l.112.028a.807.807,0,0,0,.884-.177,1.255,1.255,0,0,0-.112-.112c-.13-.121-.289-.27-.149-.54.028-.047.1-.186.233-.13.223.074.289.261.344.456.009.037.028.084.037.121.037-.047.093-.112.13-.158.2-.223.372-.447.568-.642a7.845,7.845,0,0,1,3.853-2.438,3.409,3.409,0,0,1,2.7.437l.074.074h-.1c-.13,0-.316-.019-.5-.028s-.354-.028-.475-.028a5.791,5.791,0,0,0-3.4,1.061,21.4,21.4,0,0,0-2.3,2.029c-.074.1-.158.2-.14.289a.277.277,0,0,0,.168.158.184.184,0,0,1,.121.14.3.3,0,0,1-.084.242.209.209,0,0,1-.168.093.271.271,0,0,1-.2-.14c-.047-.065-.093-.13-.14-.2a1.382,1.382,0,0,1-.074-.121c-.037.037-.093.065-.13.1-.121.1-.251.2-.382.289A1.548,1.548,0,0,1,465.257,282.893Zm-.428-.959c-.093,0-.158.037-.2.2a.528.528,0,0,0,.326.624,1.035,1.035,0,0,0,.9-.13,3.518,3.518,0,0,0,.372-.279c.056-.037.112-.093.168-.13l.037-.028.028.037c.037.056.074.112.112.158.037.065.093.13.13.2q.084.112.14.112h0c.037,0,.056-.019.093-.056a.227.227,0,0,0,.065-.168c-.009-.037-.037-.056-.074-.084-.121-.065-.2-.13-.2-.214-.028-.121.065-.242.158-.363h0a19.956,19.956,0,0,1,2.317-2.048,5.952,5.952,0,0,1,3.444-1.08c.121,0,.307.019.484.028l.372.028a3.712,3.712,0,0,0-2.522-.326,7.762,7.762,0,0,0-3.816,2.429c-.2.2-.372.41-.558.633-.056.074-.121.14-.186.214l-.047.056-.028-.065a1.315,1.315,0,0,1-.065-.2c-.056-.2-.1-.344-.289-.4-.037-.019-.065,0-.121.093-.1.2.009.3.13.428a.741.741,0,0,1,.14.158l.019.028-.028.028a.862.862,0,0,1-1,.233c-.037-.009-.074-.019-.121-.028A.226.226,0,0,0,464.828,281.935Z" transform="translate(-464.524 -278.213)" fill="#101720"/></g><g transform="translate(160.021 189.644)"><circle cx="12.574" cy="12.574" r="12.574" transform="translate(0.074 0.074)" fill="#cee3f1"/><path d="M374.148,355.6A12.648,12.648,0,1,1,386.8,342.948,12.661,12.661,0,0,1,374.148,355.6Zm0-25.157a12.518,12.518,0,1,0,12.518,12.518A12.534,12.534,0,0,0,374.148,330.44Z" transform="translate(-361.5 -330.3)" fill="#101720"/></g><g transform="translate(160.086 202.22)"><rect width="25.157" height="0.121" transform="translate(0 0)" fill="#101720"/></g><g transform="translate(161.082 207.082)"><rect width="23.184" height="0.121" fill="#101720"/></g><g transform="translate(165.484 212.47)"><rect width="14.379" height="0.121" transform="translate(0 0)" fill="#101720"/></g><g transform="translate(160.086 202.22)"><rect width="25.157" height="0.121" transform="translate(0 0)" fill="#101720"/></g><g transform="translate(161.082 197.341)"><rect width="23.184" height="0.121" fill="#101720"/></g><g transform="translate(165.484 191.962)"><rect width="14.379" height="0.121" transform="translate(0 0)" fill="#101720"/></g><g transform="translate(172.603 189.709)"><rect width="0.121" height="25.166" fill="#101720"/></g><g transform="translate(172.597 189.672)"><path d="M496.9,355.831l-.1-.074a19.36,19.36,0,0,0,3.648-17.246,23.608,23.608,0,0,0-3.648-7.836l.1-.074a24.068,24.068,0,0,1,3.667,7.883,19.378,19.378,0,0,1-3.667,17.348Z" transform="translate(-496.8 -330.6)" fill="#101720"/></g><g transform="translate(172.613 189.644)"><path d="M497.156,355.578l-.056-.112a13.212,13.212,0,0,0,3.462-2.913,15.067,15.067,0,0,0,0-19.219,13.148,13.148,0,0,0-3.462-2.922l.056-.112a13.534,13.534,0,0,1,3.5,2.95,15.175,15.175,0,0,1,0,19.387A13.367,13.367,0,0,1,497.156,355.578Z" transform="translate(-497.1 -330.3)" fill="#101720"/></g><g transform="translate(172.611 189.653)"><path d="M497.228,355.687l-.028-.121a14.117,14.117,0,0,0,4.8-2.4,13.073,13.073,0,0,0,0-20.233,14.166,14.166,0,0,0-4.793-2.411l.028-.121a14.262,14.262,0,0,1,4.84,2.429,12.409,12.409,0,0,1,3.332,3.862,14.1,14.1,0,0,1,0,12.723,12.156,12.156,0,0,1-3.332,3.853A14.336,14.336,0,0,1,497.228,355.687Z" transform="translate(-497.2 -330.4)" fill="#101720"/></g><g transform="translate(168.166 189.662)"><path d="M453.309,355.741a19.826,19.826,0,0,1-4.235-9.27,19.483,19.483,0,0,1,.465-8.088,23.879,23.879,0,0,1,3.76-7.883l.1.074a23.564,23.564,0,0,0-3.741,7.846,18.983,18.983,0,0,0,3.741,17.237Z" transform="translate(-448.846 -330.5)" fill="#101720"/></g><g transform="translate(165.502 189.653)"><path d="M427.266,355.669a13.638,13.638,0,0,1-3.583-2.932,14.9,14.9,0,0,1,0-19.387,13.5,13.5,0,0,1,3.583-2.95l.056.112a13.578,13.578,0,0,0-3.546,2.922,14.794,14.794,0,0,0,0,19.219,13.822,13.822,0,0,0,3.546,2.913Z" transform="translate(-420.1 -330.4)" fill="#101720"/></g><g transform="translate(162.779 189.644)"><path d="M400.621,355.587a14.617,14.617,0,0,1-4.961-2.42,12.321,12.321,0,0,1-3.416-3.853,12.883,12.883,0,0,1-1.545-6.357,13.046,13.046,0,0,1,1.545-6.366,12.236,12.236,0,0,1,3.416-3.862,14.541,14.541,0,0,1,4.961-2.429l.028.121a14.748,14.748,0,0,0-4.914,2.411,12.886,12.886,0,0,0,0,20.233,14.778,14.778,0,0,0,4.9,2.392Z" transform="translate(-390.7 -330.3)" fill="#101720"/></g><g transform="translate(161.759 193.423)"><path d="M386.924,371.929a1.971,1.971,0,0,0,.717.475,34.646,34.646,0,0,1,3.183,2.392,1.519,1.519,0,0,0,.866.316c.707.037,1.424.112,2.122.14.2.019.335.074.372.3.037.2.149.344.372.289.54-.14.782.214.893.6a2.052,2.052,0,0,0,.679.866c.335.316.754.558.866,1.108-.2.149-.121.372,0,.586.233.409.475.819.717,1.238.047.084.112.2.214.2.372.028.456.335.624.568.316.428.652.847.987,1.266a.424.424,0,0,0,.344.13l2.271.279a.737.737,0,0,1,.624.949c-.168.549-.344,1.089-.5,1.638a.5.5,0,0,1-.372.382c-.791.27-1.591.549-2.373.828a14.219,14.219,0,0,1-3.006.521,2.979,2.979,0,0,0-2.42,1.666c-.168.326-.335.363-.577.093a.4.4,0,0,0-.372-.13,4.4,4.4,0,0,1-1.433-.149,3.067,3.067,0,0,0-1.2.019.76.76,0,0,1-.475-.056c-.307-.158-.493-.037-.614.289-.084.242.065.512-.112.735h0l-.047.047a.816.816,0,0,0-.14-.047,3.712,3.712,0,0,0-.893-1.368,2.529,2.529,0,0,1-.735-1.182,3,3,0,0,0-1.5-1.759,1.531,1.531,0,0,1-.745-1.154,4.494,4.494,0,0,0-.7-2.578,2.187,2.187,0,0,0-.754-.679.827.827,0,0,1-.577-.866.986.986,0,0,0-.279-.614c-.6-.9-1.219-1.778-1.768-2.718-.047-.084-.121-.2-.2-.214-.614-.14-.382-.6-.372-.959.019-.391.14-.5.53-.391a1.115,1.115,0,0,0,1.433-.577.441.441,0,0,1,.363-.186c.335-.037.651-.121.772-.5.037-.14.251-.13.3-.3a14.259,14.259,0,0,0-.949-1.1c.447-.214.931-.223,1.35-.419a3.055,3.055,0,0,1,2.522.019Z" transform="translate(-380.521 -371.584)" fill="#f8cd6d"/><path d="M389,388.98l-.037-.019c-.028-.009-.047-.019-.074-.028a.448.448,0,0,1-.065-.028l-.028-.009-.009-.028c-.056-.121-.121-.233-.177-.354a2.645,2.645,0,0,0-.7-1.005,2.419,2.419,0,0,1-.735-1.154l-.019-.047a2.893,2.893,0,0,0-1.461-1.722,1.606,1.606,0,0,1-.782-1.191c-.037-.2-.047-.428-.074-.633a3.119,3.119,0,0,0-.614-1.917c-.028-.037-.047-.056-.074-.093a1.881,1.881,0,0,0-.651-.568.891.891,0,0,1-.614-.921.894.894,0,0,0-.242-.54l-.028-.037c-.13-.2-.27-.391-.391-.586-.465-.689-.949-1.405-1.387-2.131-.009-.009-.019-.028-.028-.037-.037-.056-.084-.14-.13-.149-.549-.13-.493-.512-.447-.81a1.941,1.941,0,0,0,.028-.214c.009-.223.056-.372.158-.437a.533.533,0,0,1,.456-.009,1.05,1.05,0,0,0,1.359-.549.469.469,0,0,1,.409-.214c.372-.037.614-.13.717-.456a.326.326,0,0,1,.168-.168c.056-.037.1-.056.121-.1a4.023,4.023,0,0,0-.493-.586,5.543,5.543,0,0,1-.437-.484l-.037-.056.065-.037a2.617,2.617,0,0,1,.726-.223,2.856,2.856,0,0,0,.624-.2,3.2,3.2,0,0,1,2.55.037l-.019.047.037-.037.2.2a1.877,1.877,0,0,0,.3.168,2.36,2.36,0,0,1,.214.112,15.622,15.622,0,0,1,2.048,1.5c.372.3.754.614,1.145.9a1.517,1.517,0,0,0,.838.307l.866.056c.41.037.838.056,1.256.084a.414.414,0,0,1,.437.354.3.3,0,0,0,.121.214.2.2,0,0,0,.168.019c.475-.121.819.1.968.642a1.4,1.4,0,0,0,.512.7c.047.047.1.093.149.14.065.065.14.13.214.2a1.588,1.588,0,0,1,.661.949l.009.037-.037.028c-.13.1-.13.242.019.512.233.4.465.819.717,1.238.009.009.019.028.028.037.037.065.084.13.14.14a.714.714,0,0,1,.577.447c.037.047.065.112.1.158.3.391.614.791.912,1.173l.065.084a.373.373,0,0,0,.251.112.4.4,0,0,1,.047.009l2.262.279a.8.8,0,0,1,.586.363.781.781,0,0,1,.093.67c-.056.2-.121.391-.186.6-.112.344-.214.7-.316,1.042a.579.579,0,0,1-.41.428c-.8.27-1.61.558-2.373.828a9.528,9.528,0,0,1-2.262.437c-.251.028-.5.056-.754.093a2.949,2.949,0,0,0-2.373,1.629c-.1.2-.2.289-.307.3-.121.019-.233-.047-.372-.2a.364.364,0,0,0-.326-.121,4.094,4.094,0,0,1-1.443-.158,2.709,2.709,0,0,0-.949-.009l-.223.028a.806.806,0,0,1-.512-.065.4.4,0,0,0-.3-.047.438.438,0,0,0-.223.3.6.6,0,0,0-.019.289.6.6,0,0,1-.1.456l-.009.009c-.009.009-.019.009-.019.019l-.028.028Zm-.121-.177a.158.158,0,0,0,.047.019c.009,0,.019.009.037.009l.019-.019.009-.009a.511.511,0,0,0,.065-.372.735.735,0,0,1,.028-.344.566.566,0,0,1,.289-.372.52.52,0,0,1,.4.047.692.692,0,0,0,.437.047l.223-.028a2.808,2.808,0,0,1,1.005.009,4.12,4.12,0,0,0,1.405.149.492.492,0,0,1,.428.158c.1.121.2.168.261.158s.14-.093.214-.233a3.061,3.061,0,0,1,2.466-1.694c.251-.037.512-.056.763-.093a9.592,9.592,0,0,0,2.224-.428c.763-.279,1.573-.558,2.373-.828a.429.429,0,0,0,.326-.344c.1-.354.2-.7.316-1.042.056-.2.121-.391.186-.6a.675.675,0,0,0-.568-.875l-2.271-.279c-.019,0-.037-.009-.056-.009a.446.446,0,0,1-.326-.149l-.065-.084c-.3-.382-.614-.782-.921-1.182a1,1,0,0,1-.1-.168c-.121-.2-.214-.372-.475-.382-.121-.009-.2-.121-.242-.2a.071.071,0,0,1-.019-.037c-.242-.419-.484-.838-.717-1.238-.074-.14-.242-.437-.019-.642a1.533,1.533,0,0,0-.614-.838,2.227,2.227,0,0,1-.223-.2c-.047-.047-.1-.093-.149-.14a1.522,1.522,0,0,1-.54-.754c-.13-.475-.409-.67-.819-.558a.333.333,0,0,1-.27-.028.462.462,0,0,1-.186-.3c-.028-.168-.112-.233-.316-.251-.419-.028-.847-.047-1.256-.084l-.866-.056a1.63,1.63,0,0,1-.9-.335c-.391-.289-.782-.6-1.154-.912a15.083,15.083,0,0,0-2.029-1.48c-.065-.037-.14-.074-.2-.112a1.349,1.349,0,0,1-.521-.372,3.068,3.068,0,0,0-2.429-.037,4.278,4.278,0,0,1-.642.2,3.026,3.026,0,0,0-.624.2,5.441,5.441,0,0,0,.372.409,3.7,3.7,0,0,1,.531.624l.019.028-.009.028a.406.406,0,0,1-.186.2c-.056.037-.1.056-.112.1a.816.816,0,0,1-.819.54c-.149.019-.251.047-.307.149a1.183,1.183,0,0,1-1.508.614.48.48,0,0,0-.344-.009c-.065.037-.1.149-.112.344a1.989,1.989,0,0,1-.028.233c-.047.3-.084.558.344.67.093.019.158.121.2.2a.129.129,0,0,0,.028.037c.437.726.921,1.443,1.377,2.131l.391.586.028.037a1.05,1.05,0,0,1,.261.624.762.762,0,0,0,.54.8,1.907,1.907,0,0,1,.7.6c.028.037.047.056.074.093a3.223,3.223,0,0,1,.633,1.982c.019.2.037.419.074.624a1.49,1.49,0,0,0,.707,1.108,3.067,3.067,0,0,1,1.526,1.787l.019.047a2.256,2.256,0,0,0,.7,1.1,2.674,2.674,0,0,1,.735,1.042A1.763,1.763,0,0,0,388.875,388.8Z" transform="translate(-380.201 -370.988)" fill="#101720"/></g><g transform="translate(150.547 182.157)"><path d="M300.135,273.436a9.026,9.026,0,0,0,2.634-1.647,5.345,5.345,0,0,0,1.024-1.163.252.252,0,0,0-.112-.037,1.24,1.24,0,0,1-.177.047,7.869,7.869,0,0,0-2.69,1.871,2.074,2.074,0,0,1-.828.558c.047-.856.13-1.005.782-1.433.121-.084.233-.2.363-.289a9.28,9.28,0,0,0,2.876-3.248l-.047-.047a.824.824,0,0,0-.326.186,13.563,13.563,0,0,0-2.7,2.615,1.827,1.827,0,0,1-.5.5c.158-.679.028-1.322.624-1.824a10.676,10.676,0,0,0,2.736-3.7c.037-.1.177-.2.037-.372a13.093,13.093,0,0,0-3.006,3.62c-.037-.409-.028-.791-.037-1.182a.751.751,0,0,1,.242-.642,10.575,10.575,0,0,0,1.945-2.671,5.507,5.507,0,0,0,.6-1.843,5.879,5.879,0,0,0-.6.568,13.893,13.893,0,0,0-1.768,2.922,1,1,0,0,1-.437.568c-.028-.614-.2-1.126.2-1.666a9.711,9.711,0,0,0,1.7-5,11.706,11.706,0,0,0-1.964,4.579.225.225,0,0,1-.186-.2,8.268,8.268,0,0,0-.214-.977.362.362,0,0,1,.037-.363,8.93,8.93,0,0,0,1.154-5,13.148,13.148,0,0,0-1.331,4.365c-.2-.484-.6-.884-.372-1.47a8.925,8.925,0,0,0,.651-3.648c-.009-.437-.065-.866-.1-1.294a2.97,2.97,0,0,0-.447,1.089,21.3,21.3,0,0,0-.289,3.071c-.009.158.047.363-.2.475-.242-.661-.707-1.247-.372-2.02a4.02,4.02,0,0,0,.2-1.117,8.752,8.752,0,0,0-.2-3.257.205.205,0,0,0-.13.2,8.392,8.392,0,0,0-.3,3.5.726.726,0,0,1-.121.745c-.335-.642-.838-1.163-.735-1.954a9.188,9.188,0,0,0-.679-4.281,14.422,14.422,0,0,0,.289,4.263c-.447-.54-1.014-.949-1.014-1.759a9.08,9.08,0,0,0-.54-2.941,4.664,4.664,0,0,0-.586-1.284c-.2,1.489.372,2.792.67,4.142a8.659,8.659,0,0,1-1.359-1.145.507.507,0,0,1-.121-.391,9.808,9.808,0,0,0-.921-3.4,3.055,3.055,0,0,0-.586-.9,9.992,9.992,0,0,0,1.2,4.142,1.178,1.178,0,0,1-.475-.223,4.5,4.5,0,0,0-.624-.391c.019.009.037.009.047.019-.54-.214-.549-.707-.7-1.126-.121-.354-.233-.7-.372-1.033a8.605,8.605,0,0,0-1.647-2.466,9.708,9.708,0,0,0,1.638,3.741c-.735-.3-1.284-.856-2.02-1.089a7.935,7.935,0,0,0-2.271-.428,5.264,5.264,0,0,0,2.876,1.126,3.554,3.554,0,0,1,1.3.735c-.614.112-1.108.186-1.6.289a3.245,3.245,0,0,0-1.48.549,6.713,6.713,0,0,0,2.02.037,11.96,11.96,0,0,1,1.908-.391c.223.2,1.061.717,1.182,1.07a12.183,12.183,0,0,0-3.723-.019c.037.14.149.14.242.186a6.305,6.305,0,0,0,3.081.316c.3-.037.633-.2.884-.056a3.7,3.7,0,0,1,1.266,1.256,10.193,10.193,0,0,0-3.8-.289.731.731,0,0,0,.261.168,6.4,6.4,0,0,0,3.276.493.965.965,0,0,1,1.089.512c.121.214.363.382.335.717a12.911,12.911,0,0,0-3.862-.633.848.848,0,0,0,.447.307,9.127,9.127,0,0,0,3.611.782c.168.009.344-.009.437.168a10.265,10.265,0,0,1,.67,1.359,14.567,14.567,0,0,0-3.6-1.005c.019.037.019.065.037.084.037.037.093.084.14.121a6.862,6.862,0,0,0,3.416,1.145c.121.009.251-.009.307.112a7.765,7.765,0,0,1,.67,1.768,12.186,12.186,0,0,0-3.686-1.3,7.827,7.827,0,0,0,3.546,1.694c.121.037.289-.028.354.112a2.99,2.99,0,0,1,.335,1.359,10.13,10.13,0,0,0-3.509-1.526c.019.056.019.093.028.112a1.26,1.26,0,0,0,.112.112,9.269,9.269,0,0,0,3.006,1.666c.391.121.624.3.633.707a3.594,3.594,0,0,1,.056,1.275,13.9,13.9,0,0,0-3.555-2.476c.093.13.121.186.14.214a10.03,10.03,0,0,0,3.3,2.643c.093.037.214.065.223.177a5.154,5.154,0,0,1,.009,1.694,12.763,12.763,0,0,0-3.174-2.606,6.96,6.96,0,0,0,2.885,2.8c.121.056.3.093.289.261-.019.456-.056.912-.093,1.368-.037.009-.065.028-.1.037a14.219,14.219,0,0,0-2.643-2.643c-.009.047-.028.084-.019.1a6.11,6.11,0,0,0,2.411,2.913c.1.056.223.1.214.233-.056.391-.13.782-.2,1.154-.168.009-.2-.065-.233-.13a11.516,11.516,0,0,0-1.536-1.936c-.2-.2-.372-.456-.689-.5a.48.48,0,0,0,.084.316,6.593,6.593,0,0,0,2.048,2.653c.074.056.214.093.177.214a7.5,7.5,0,0,1-.475,1.238,1.172,1.172,0,0,1-.307-.484,10.075,10.075,0,0,0-1.4-2.085c-.093-.1-.177-.27-.391-.14a9.179,9.179,0,0,0,1.74,3.006c.084.093.223.168.158.307-.149.372-.326.726-.54,1.182a9.779,9.779,0,0,0-1.908-3.453c-.037.1-.056.121-.047.13a10.028,10.028,0,0,0,1.61,3.453c.056.084.14.168.093.279-.223.41-.475.819-.763,1.312a17.521,17.521,0,0,0-.6-1.992,4.828,4.828,0,0,0-.959-1.694,8.972,8.972,0,0,0,1.2,3.648c.074.13.233.289.158.4a6.7,6.7,0,0,1-.921,1.182,10.463,10.463,0,0,0-1.191-3.686c-.1.177-.037.3-.037.419a10.863,10.863,0,0,0,.94,3.323c.037.121.158.223.056.354a5.853,5.853,0,0,1-1.07,1.08,13.935,13.935,0,0,0-.782-3.639c-.13.121-.084.214-.093.307a11.549,11.549,0,0,0,.419,3.341c.037.13.121.279.037.4a4.241,4.241,0,0,1-1.47,1.256,8.607,8.607,0,0,0-.168-3.993c-.14.074-.121.2-.13.307a9.775,9.775,0,0,0-.037,3.49.678.678,0,0,1-.326.754,9.043,9.043,0,0,1-1.629.912,12.256,12.256,0,0,0,.558-4.1c-.13.009-.13.084-.14.13a16.657,16.657,0,0,0-.912,3.918c-.019.13.019.307-.121.391a5.414,5.414,0,0,1-1.964.763,10.869,10.869,0,0,0,1.173-3.807c-.149.009-.168.121-.214.177a9.933,9.933,0,0,0-1.536,3.611c-.037.121-.037.27-.168.316a5.388,5.388,0,0,1-1.536.363,9.081,9.081,0,0,0,1.526-4.03,9.866,9.866,0,0,0-1.917,3.723.605.605,0,0,1-.6.5,28.524,28.524,0,0,1-4.458.13,7.78,7.78,0,0,1-1.526-.149.489.489,0,0,1-.456-.4,11.132,11.132,0,0,0-2.01-3.937l.009-.009c-.074.074-.037.168-.028.251a9.735,9.735,0,0,0,1.368,3.518c.056.112.2.2.121.382a6.062,6.062,0,0,1-1.294-.289.37.37,0,0,1-.316-.372,7.649,7.649,0,0,0-.428-1.5,9.075,9.075,0,0,0-1.322-2.438,10.919,10.919,0,0,0,1.126,3.89,4.9,4.9,0,0,1-1.61-.54.651.651,0,0,1-.447-.624,11.531,11.531,0,0,0-.344-2.1,8.324,8.324,0,0,0-.651-1.917,11.558,11.558,0,0,0,.484,4.067,6.771,6.771,0,0,1-1.694-.968.47.47,0,0,1-.233-.54,13.773,13.773,0,0,0,.13-2.317,4.3,4.3,0,0,0-.307-1.638,9.522,9.522,0,0,0-.2,3.974,3.626,3.626,0,0,1-.94-.642c-.419-.354-.689-.717-.4-1.294a3.491,3.491,0,0,0,.186-.856,8.483,8.483,0,0,0,.1-2.476,14.346,14.346,0,0,0-.81,3.62,8.1,8.1,0,0,1-1.014-1.033c-.112-.121-.037-.242.009-.363a11.755,11.755,0,0,0,.679-1.889,6.9,6.9,0,0,0,.261-1.852,5.127,5.127,0,0,0-.791,1.75c-.168.624-.3,1.247-.456,1.945-.289-.363-.5-.679-.754-.977a.4.4,0,0,1-.037-.54,9.644,9.644,0,0,0,.921-2.048,4.189,4.189,0,0,0,.307-1.75,11.323,11.323,0,0,0-1.526,3.611c-.251-.326-.437-.661-.642-.977a.4.4,0,0,1,.019-.54A9.008,9.008,0,0,0,267.253,272a1.208,1.208,0,0,0,.1-.651,10.5,10.5,0,0,0-1.9,3.49,7.885,7.885,0,0,0-.382-.819.56.56,0,0,1,.1-.8,4.629,4.629,0,0,0,.558-.717,7.061,7.061,0,0,0,1.089-2.355,5.4,5.4,0,0,0-1.182,1.377c-.307.5-.6,1.024-.921,1.582-.168-.437-.3-.782-.437-1.135a.259.259,0,0,1,.121-.354,5.911,5.911,0,0,0,1.052-1,6.349,6.349,0,0,0,1.2-2.15,6.745,6.745,0,0,0-1.387,1.322c-.372.465-.717.949-1.135,1.517-.084-.437-.14-.772-.214-1.1a.326.326,0,0,1,.186-.4,4.879,4.879,0,0,0,1.08-.838,5.4,5.4,0,0,0,1.294-2.1,14.578,14.578,0,0,0-2.652,2.541,11.115,11.115,0,0,1-.149-1.312c-.019-.168.1-.223.214-.279a6.911,6.911,0,0,0,1.768-1.247,5.64,5.64,0,0,0,1.219-1.61,13.227,13.227,0,0,0-3.211,2.625,9.952,9.952,0,0,1,0-1.582.39.39,0,0,1,.279-.326,10.148,10.148,0,0,0,1.685-1.042,7.7,7.7,0,0,0,1.666-1.722,12.742,12.742,0,0,0-3.5,2.42,3.581,3.581,0,0,1,.037-.921c.028-.6.2-1.052.884-1.145a1.957,1.957,0,0,0,.391-.14,8,8,0,0,0,2.559-1.647A9.874,9.874,0,0,0,264.135,263a2.055,2.055,0,0,1,.084-.754c.158-.437.344-.772.912-.819a4.748,4.748,0,0,0,1.778-.6,4.611,4.611,0,0,0,1.471-1.033,13.58,13.58,0,0,0-3.686,1.35,8.539,8.539,0,0,1,.531-1.5.534.534,0,0,1,.558-.391,6.11,6.11,0,0,0,3.09-1.024c.13-.093.354-.121.382-.307a12.8,12.8,0,0,0-3.63,1.024,9.792,9.792,0,0,1,.6-1.247.527.527,0,0,1,.54-.316,8.879,8.879,0,0,0,2.662-.41,3.764,3.764,0,0,0,1.294-.614,12.826,12.826,0,0,0-3.816.577,2.841,2.841,0,0,1,.53-.912.651.651,0,0,1,.707-.307,7.281,7.281,0,0,0,2.457-.14,4.842,4.842,0,0,0,1.4-.54,11.155,11.155,0,0,0-3.853.3,3.773,3.773,0,0,1,.959-1.089.665.665,0,0,1,.624-.158,6.829,6.829,0,0,0,2.643.028,4.384,4.384,0,0,0,1.266-.419,12.33,12.33,0,0,0-3.835-.019,1.142,1.142,0,0,1,.093-.223h0a4.473,4.473,0,0,1,1.256-.893,6.845,6.845,0,0,0,3.741.372,9.112,9.112,0,0,0-3.034-.791,2.975,2.975,0,0,1,1.564-.782,4.625,4.625,0,0,0,1.284-.307,3.8,3.8,0,0,0,1.3-.772,7.348,7.348,0,0,0-4.253,1.526A10.419,10.419,0,0,0,273.4,248a11.248,11.248,0,0,0-1.284,1.759,14.006,14.006,0,0,0-1.005,2.625,5.794,5.794,0,0,0-1.2.866c-.065-.009-.13.084-.261-.037a9.17,9.17,0,0,0,1.191-4.1,7.575,7.575,0,0,0-1.443,3.928c-.084,1.07-.949,1.359-1.526,1.964.289-1.368.866-2.68.633-4.179-.084.168-.13.261-.2.372a10.7,10.7,0,0,0-.949,4.049c-.037.735-.586,1.089-1,1.6a15.4,15.4,0,0,0,.289-4.263c-.065.13-.093.168-.112.2a9.554,9.554,0,0,0-.568,4.337c.037.689-.484,1.108-.773,1.647a15.061,15.061,0,0,1-.019-2.243,8.082,8.082,0,0,0-.475-2.215,9.322,9.322,0,0,0,.047,4.719c.2.7-.279,1.117-.512,1.666-.251-1.536-.084-3.146-.81-4.653a8.609,8.609,0,0,0,.475,4.914c.251.651-.168,1.052-.335,1.582a12.789,12.789,0,0,0-1.275-4.309,8.549,8.549,0,0,0,1.042,4.821.5.5,0,0,1,.121.354c-.1.456-.2.893-.307,1.35a13.426,13.426,0,0,0-2.02-4.477,9.068,9.068,0,0,0,1.629,4.821,2.24,2.24,0,0,1,.2,1.694,1.259,1.259,0,0,1-.4-.558,14.724,14.724,0,0,0-1.5-2.559,2.68,2.68,0,0,0-.866-.875.91.91,0,0,0,.084.568,9.658,9.658,0,0,0,2.038,3.444c.214.242.558.447.614.763a5.712,5.712,0,0,1,.037,1.61,20.136,20.136,0,0,0-1.405-2.1,10.943,10.943,0,0,0-1.74-1.731c.009.093,0,.13.019.158a11.686,11.686,0,0,0,2.82,3.983,2.119,2.119,0,0,1,.6,1.861,14.35,14.35,0,0,0-3.574-3.416c-.009.214.13.261.186.354a9.213,9.213,0,0,0,3.211,3.341c.558.363.577.856.67,1.405-1.275-.828-2.234-2.141-3.807-2.531a.16.16,0,0,0,.009.074c.037.074.1.14.149.214a8.71,8.71,0,0,0,3.378,2.532,1.5,1.5,0,0,1,.856,1.452,13.842,13.842,0,0,0-4.3-2.29,9.613,9.613,0,0,0,4.225,2.69,1.427,1.427,0,0,1,.893,1.266c-.791-.419-1.564-.856-2.383-1.191a5.83,5.83,0,0,0-2.494-.7,11.235,11.235,0,0,0,5.044,2.327,1,1,0,0,1,.577.856,15.223,15.223,0,0,0-4.635-1.126,10.66,10.66,0,0,0,4.775,1.731,1.345,1.345,0,0,1,1.089,1.108,14.4,14.4,0,0,0-4.644-.745.287.287,0,0,0,.13.13,8.825,8.825,0,0,0,4.635,1.154c.7-.009.875.447,1.2.838a17.02,17.02,0,0,0-4.654-.382.635.635,0,0,0,.391.242,9.973,9.973,0,0,0,4.5.782c.717-.037,1.014.4,1.415.819a18.257,18.257,0,0,0-4.933.028c.168.084.223.121.3.149a8.748,8.748,0,0,0,4.923.465c.959-.158,1.387.54,2.038.912a26.846,26.846,0,0,0-5.231.67c.13.037.186.056.223.065a10.029,10.029,0,0,0,5.594-.112c.838-.242,1.368.344,2.057.54-.828.233-1.657.391-2.476.586a11.405,11.405,0,0,0-2.494.838,7.326,7.326,0,0,0,2.541.047,12.326,12.326,0,0,0,3.3-1c.475-.214.838.047,1.266.149a17.824,17.824,0,0,0-2.513,1.666,10.7,10.7,0,0,0-2.048,2.234c.531.168,1.024.289,1.48.475.289.121.382.028.521-.177a10.948,10.948,0,0,1,1.415-1.592,8.884,8.884,0,0,1,10.247-1.033,9.415,9.415,0,0,1,2.736,2.55c.112.14.177.372.437.289.531-.168,1.042-.344,1.61-.54a11.787,11.787,0,0,0-4.6-3.862,1.9,1.9,0,0,1,1.722-.019,10.109,10.109,0,0,0,4.021.912,4.215,4.215,0,0,0,1.377-.158,26,26,0,0,0-4.97-1.377c.419-.214.847-.372,1.266-.558a.824.824,0,0,1,.614-.037,11.366,11.366,0,0,0,4.3.437c.279-.037.558-.065.828-.121a3.228,3.228,0,0,0,.893-.242,23.674,23.674,0,0,0-5.314-.6,12.166,12.166,0,0,1,1.135-.81.929.929,0,0,1,.782-.186,10.568,10.568,0,0,0,3.9-.037,4.705,4.705,0,0,0,1.526-.549,16.978,16.978,0,0,0-4.951.009c.465-.521.8-.893,1.489-.866a10.024,10.024,0,0,0,4.151-.651,1.693,1.693,0,0,0,.726-.372,15.127,15.127,0,0,0-4.765.447c.409-.558.717-.94,1.443-.912a8.517,8.517,0,0,0,3.7-.745,4.126,4.126,0,0,0,1.005-.568,11.846,11.846,0,0,0-2.42.2,22.4,22.4,0,0,0-2.336.568,1.336,1.336,0,0,1,1.182-1.108,9.237,9.237,0,0,0,1.954-.41,9,9,0,0,0,2.727-1.349,24.373,24.373,0,0,0-4.663,1.145c.2-.419.354-.81.94-.893a8.423,8.423,0,0,0,3.025-1.08,10,10,0,0,0,1.787-1.3,15.53,15.53,0,0,0-3.118,1.052c-.614.279-1.163.67-1.787.893-.028.009-.047.009-.074.019.009-.028.019-.047.028-.074a5.915,5.915,0,0,1,.372-.866.368.368,0,0,1,.289-.214,9,9,0,0,0,3.174-1.582,3.772,3.772,0,0,0,1.052-1.052,13.29,13.29,0,0,0-4.114,2.187,2.653,2.653,0,0,1,.2-.772A.75.75,0,0,1,300.135,273.436Z" transform="translate(-259.695 -248)" fill="#2e4d4b"/></g><g transform="translate(167.838 198.128)"><path d="M450.377,421.6l-4.877,8.451h9.763l-4.886-8.451-4.877,8.451h9.763Z" transform="translate(-445.5 -421.6)" fill="#39368c"/></g><g transform="translate(167.643 197.924)"><path d="M443.4,428.177l5.072-8.777,5.072,8.777Z" transform="translate(-443.4 -419.4)" fill="#111b24"/></g><g transform="translate(167.838 198.128)"><path d="M450.377,421.6l-4.877,8.451h9.763l-4.886-8.451-4.877,8.451h9.763Z" transform="translate(-445.5 -421.6)" fill="#39368c"/></g><g transform="translate(157.932 227.033)"><path d="M348.484,738.944a9.223,9.223,0,0,0,.13-1.88c-.028-.149-.093-.177-.149-.326a.681.681,0,0,1,.233-.949,4.519,4.519,0,0,0,.94.875c-.251.121-.456.382-.651.447a6.533,6.533,0,0,0-.037.968c-.1.661.335,1.089.6,1.554-.382.6-.475.577-1.135-.186a8.146,8.146,0,0,1-3.574-.223,21.412,21.412,0,0,1-3.676-1.182c-.549-.223-1.135-.475-1.061-1.284-.856.372-1.768.037-1.852-.382a.777.777,0,0,1,.307-.782c0,.7.614.931,1.256.773a.564.564,0,0,0,.41-.54,7.2,7.2,0,0,0,.065-.772c.009-.214.13-.289.335-.354a5.631,5.631,0,0,1-.13,1.443.846.846,0,0,0,.363.884,6.283,6.283,0,0,0,2.187.949,24.42,24.42,0,0,0,3.993.949C347.479,738.972,347.982,738.944,348.484,738.944Z" transform="translate(-338.241 -734.7)" fill="#322f30"/></g><g transform="translate(176.312 227.653)"><path d="M545.112,742.987c-.1.093-.2.186-.289.27a.571.571,0,0,1-.931-.13,1.319,1.319,0,0,1,.2-1.61.481.481,0,0,1,.6-.084,2.717,2.717,0,0,1,1,2.113,1.245,1.245,0,0,1-.884.949,15.1,15.1,0,0,1-4.2,1.275,5.874,5.874,0,0,1-1,.028,1.742,1.742,0,0,1-1.787-1.591,12.7,12.7,0,0,0-.549-2.02c-.074-.168-.065-.307.1-.382.2-.074.242.112.289.223.186.6.363,1.21.512,1.824.186.726.54,1.089,1.526,1.117a12.193,12.193,0,0,0,4.951-1.173,1.368,1.368,0,0,0,.549-.456A.252.252,0,0,0,545.112,742.987Zm-.419-.81c-.279-.14-.456-.112-.614.075a.124.124,0,0,0,.037.2C544.368,742.55,544.507,742.392,544.693,742.178Z" transform="translate(-537.222 -741.365)" fill="#322f30"/></g><g transform="translate(173.325 228.068)"><path d="M505.36,748.12a.953.953,0,0,1-.642-1.117,1.262,1.262,0,0,1,.856-1.145.729.729,0,0,1,.838.326c-.084.186-.214.121-.335.121-.289.028-.558.056-.707.363a.37.37,0,0,0,.112.456.72.72,0,0,0,.8.158,5.823,5.823,0,0,0,.968-.54.56.56,0,0,1-.27.7,6.131,6.131,0,0,0-1.191.875,1.815,1.815,0,0,0-.558,1.517c.093.67.6.931,1.452,1.005a6.256,6.256,0,0,0,2.3-.391,1.13,1.13,0,0,1,.493-.093,3.033,3.033,0,0,1-1.489.94,4.335,4.335,0,0,1-1.8.093,1.625,1.625,0,0,1-1.322-2.243A4.146,4.146,0,0,1,505.36,748.12Z" transform="translate(-504.699 -745.823)" fill="#322f30"/></g><g transform="translate(185.271 224.399)"><path d="M635.889,706.4a1.366,1.366,0,0,0,.838.233c.475.019.521.065.447.54-.037.214.1.335.2.475.177.251.372.475.558.726a1.46,1.46,0,0,1,.251,1.359c-.019.037-.019.112-.037.13a5.021,5.021,0,0,1-1.694,1.117c-.2.065-.391-.112-.614-.084-.047.6-.586.773-1,1.033a.427.427,0,0,1-.661-.214,5.583,5.583,0,0,1-.186-.558,1.287,1.287,0,0,0,1.424-.614c.056-.251-.121-.382-.307-.521-.391-.289-.391-.307-.223-.791.251.233.54.475.782.735a.679.679,0,0,0,.968.13,7.138,7.138,0,0,0,1.08-.838c.168-.168.186-.289.037-.475-.335-.437-.689-.847-1.042-1.256-.1-.121-.214-.112-.335-.13C635.778,707.238,635.638,706.949,635.889,706.4Z" transform="translate(-634 -706.4)" fill="#322f30"/></g><g transform="translate(153.799 224.641)"><path d="M295.994,711.141c.14-.344.279-.521.67-.391.475.149.8-.2.726-.707-.028-.13-.074-.289.112-.354.149-.047.326-.14.465-.028a.4.4,0,0,1,.14.447,1.593,1.593,0,0,1-.651.856.94.94,0,0,0-.261.2c.279.549-.084,1.145-.782,1.284a3.212,3.212,0,0,1-2.336-.419,1.334,1.334,0,0,1-.279-2.243,3.454,3.454,0,0,1,1.1-.791c.093.177-.037.214-.13.279a2.8,2.8,0,0,0-.735.707,1,1,0,0,0,.3,1.405,3.1,3.1,0,0,0,1.871.642c.121.009.27.037.326-.121a.319.319,0,0,0-.093-.354A3.706,3.706,0,0,0,295.994,711.141Z" transform="translate(-293.315 -709)" fill="#322f30"/></g><g transform="translate(170.381 228.271)"><path d="M473.076,748c.056.475.13.865.158,1.266l.112,2.122a.959.959,0,0,1-.391.884c-.112-.037-.074-.149-.084-.223-.065-1.089-.13-2.169-.2-3.258A.843.843,0,0,1,473.076,748Z" transform="translate(-472.674 -748)" fill="#322f30"/></g><g transform="translate(188.927 223.394)"><path d="M673.536,695.6c.875,1.089,2.206,1.759,2.252,3.341-.13-.177-.279-.354-.419-.521-.549-.624-1.089-1.266-1.675-1.861A.821.821,0,0,1,673.536,695.6Z" transform="translate(-673.457 -695.6)" fill="#322f30"/></g><g transform="translate(162.281 228.113)"><path d="M385.1,746.793c-.037-.735,2.141-.289,3.192-.493a.583.583,0,0,1-.465.316A18.9,18.9,0,0,0,385.1,746.793Z" transform="translate(-385.095 -746.3)" fill="#322f30"/></g><g transform="translate(155.253 228.745)"><path d="M310.6,753.751c-.5.475-.5.475-.949.037-.223.2-.475.233-.624-.093-.158-.372.214-.41.372-.6.214.074.261.316.484.391C310.245,753.156,310.385,753.519,310.6,753.751Z" transform="translate(-308.988 -753.1)" fill="#322f30"/></g><g transform="translate(184.497 225.172)"><path d="M625.881,715.56c.093-.177-.084-.344-.028-.521.186-.047.2.289.391.214.177-.168-.149-.465-.047-.54s.372.335.354.614a1.3,1.3,0,0,1-.782.7c-.316.028-.391-.679-.289-.7C625.6,715.29,625.649,715.625,625.881,715.56Z" transform="translate(-625.438 -714.704)" fill="#322f30"/></g><g transform="translate(180.782 228.019)"><path d="M585.583,745.3c.214.074.521,0,.438.335-.047.214.028.6-.41.54-.2-.028-.456-.037-.372-.344C585.276,745.626,585.248,745.3,585.583,745.3Z" transform="translate(-585.222 -745.3)" fill="#322f30"/></g><g transform="translate(157.058 224.056)"><path d="M329.339,703.232l-.447.251a.093.093,0,0,1-.13-.028l-.223-.26a.1.1,0,0,1,.009-.149l.354-.307a.093.093,0,0,1,.14.009l.316.316A.106.106,0,0,1,329.339,703.232Z" transform="translate(-328.511 -702.712)" fill="#322f30"/></g></g><g transform="translate(158.45 80.5)"><g transform="translate(63.95 23.6)"><path d="M7.3,15.3a1.344,1.344,0,0,1-1.2-.4,2.135,2.135,0,0,1-.5-1.3,1.568,1.568,0,0,1,.5-1.3,1.444,1.444,0,0,1,1.2-.5,1.637,1.637,0,0,1,1.2.5,1.785,1.785,0,0,1,.4,1.3,2.018,2.018,0,0,1-.4,1.3A1.63,1.63,0,0,1,7.3,15.3Zm4.4,0a1.637,1.637,0,0,1-1.2-.5,1.785,1.785,0,0,1-.4-1.3,2.018,2.018,0,0,1,.4-1.3,2,2,0,0,1,1.2-.5,1.444,1.444,0,0,1,1.2.5,2.541,2.541,0,0,1,.5,1.3,1.759,1.759,0,0,1-.5,1.3A1.444,1.444,0,0,1,11.7,15.3Zm5.1,16-7.7.1a9.713,9.713,0,0,1-3.9-.7,4.914,4.914,0,0,1-2.5-2.1,6.634,6.634,0,0,1-1-3.3,6.55,6.55,0,0,1,.9-3.6,6.651,6.651,0,0,1,2.6-2.3,9.059,9.059,0,0,1,3.9-.8h1.1l-.1-1.4h3.4l.1,11.4,3.2-.1a.088.088,0,0,1,.1.1v2.5Q16.9,31.3,16.8,31.3ZM9,28.6h1.3l-.1-7.3h-1a4.676,4.676,0,0,0-3,1.1,3.785,3.785,0,0,0-1,2.8,3.318,3.318,0,0,0,1,2.6A3.713,3.713,0,0,0,9,28.6Zm15.3,2.6-7.8.1a.088.088,0,0,1-.1-.1V28.6a.088.088,0,0,1,.1-.1h3.1a8.313,8.313,0,0,1-.7-1.9,10.175,10.175,0,0,1-.2-2,9.481,9.481,0,0,1,.3-2.3,10.715,10.715,0,0,1,.8-2.2,9.568,9.568,0,0,1,2.5-1.2,9.218,9.218,0,0,1,2.5-.4,6.834,6.834,0,0,1,3.1.7,5.138,5.138,0,0,1,2.2,2.1,5.8,5.8,0,0,1,.8,3.1,8.739,8.739,0,0,1-.2,1.9,5.7,5.7,0,0,1-.6,1.6,5.94,5.94,0,0,1-2.4,2.4A8.03,8.03,0,0,1,24.3,31.2Zm-2.4-6.4a7.85,7.85,0,0,0,.2,1.7q.2.9.5,1.9h1.3a3.511,3.511,0,0,0,1.9-.5,3.769,3.769,0,0,0,1.3-1.4,5.131,5.131,0,0,0,.4-2.1,3.333,3.333,0,0,0-.8-2.3,2.279,2.279,0,0,0-1.9-.9,3.32,3.32,0,0,0-1.3.3,4.614,4.614,0,0,0-1.3.6,7.431,7.431,0,0,0-.3,1.3Zm26.5,3.3,3.3-.1q.2,0,.2.1v2.6q0,.1-.2.1l-18,.2-.1-2.7,5.1-.1L35.2,14.8l3.5-.1,3.4,13.5,2.9-.1-.2-17h3.3Zm26.1,2.4H69.6a5.6,5.6,0,0,1-2.1-.4,6.1,6.1,0,0,1-2-1.4,4.917,4.917,0,0,1-1.7,1.4,5.316,5.316,0,0,1-2.4.5l-9.8.2q-.2,0-.2-.1V28.1a.088.088,0,0,1,.1-.1h3.4l-.1-8,3.4-.1.1,8h2.4a2.22,2.22,0,0,0,1.9-.8,3.336,3.336,0,0,0,.6-2.2l-.1-5,3.3-.1.1,5.3v1a3.02,3.02,0,0,0,1.3,1.3,3.6,3.6,0,0,0,1.8.4h1.5L71,17.7h3.3Z" transform="translate(-38.1 -21.25)" fill="#36b98c"/></g><g transform="translate(75 57)"><path d="M2.5,62.7a6.978,6.978,0,0,0,4.7,1.5,7.544,7.544,0,0,0,4.9-1.5,5.237,5.237,0,0,0,1.8-4.3c0-2.9-1.7-4.7-4.9-5.3l-1.9-.3a4.16,4.16,0,0,1-2-.8,2.111,2.111,0,0,1-.6-1.6,2.06,2.06,0,0,1,.7-1.7,3.281,3.281,0,0,1,2.1-.6,2.814,2.814,0,0,1,2,.6,2.481,2.481,0,0,1,.8,2h3.4a5.448,5.448,0,0,0-1.8-4.1,6.178,6.178,0,0,0-4.4-1.5,6.611,6.611,0,0,0-4.5,1.5,5.347,5.347,0,0,0-1.7,4.1c0,2.9,1.7,4.6,5,5.2l1.8.3a3.336,3.336,0,0,1,1.9.8,2.2,2.2,0,0,1,.6,1.7q0,2.4-3,2.4A3.845,3.845,0,0,1,5,60.5a3.041,3.041,0,0,1-1-2.2H.7A6.158,6.158,0,0,0,2.5,62.7ZM25.4,51.1a5.617,5.617,0,0,0-4.1-1.3,6.342,6.342,0,0,0-3.8,1.1,4.012,4.012,0,0,0-1.4,3.2v.1h3.2v-.1a1.656,1.656,0,0,1,.5-1.3,2.41,2.41,0,0,1,1.5-.4,1.919,1.919,0,0,1,2.2,2.2v1.1H20.6A5.721,5.721,0,0,0,17,56.8a3.773,3.773,0,0,0-1.2,3A4.223,4.223,0,0,0,17,63a4.307,4.307,0,0,0,3.3,1.2,3.576,3.576,0,0,0,1.9-.4,3.316,3.316,0,0,0,1.4-1V64h3.3V54.8A4.41,4.41,0,0,0,25.4,51.1ZM23,60.9a2.707,2.707,0,0,1-1.9.6q-2.1,0-2.1-1.8c0-1.1.7-1.7,2.1-1.7h2.4v1A2.851,2.851,0,0,1,23,60.9Zm7.9,2A4.331,4.331,0,0,0,34,64h1.6V61.1H34.5a1.246,1.246,0,0,1-1.1-.4,1.737,1.737,0,0,1-.3-1.2V45.4H29.8V59.7A4.421,4.421,0,0,0,30.9,62.9ZM46.7,51.1a5.617,5.617,0,0,0-4.1-1.3,6.342,6.342,0,0,0-3.8,1.1,4.158,4.158,0,0,0-1.4,3.2v.1h3.1v-.1a1.76,1.76,0,0,1,.6-1.3,2.076,2.076,0,0,1,1.5-.4,1.919,1.919,0,0,1,2.2,2.2v1.1h-3a5.424,5.424,0,0,0-3.5,1.1,3.837,3.837,0,0,0-1.3,3A4.223,4.223,0,0,0,38.2,63a4.547,4.547,0,0,0,3.4,1.2,3.807,3.807,0,0,0,1.9-.4,4.065,4.065,0,0,0,1.4-1V64h3.2V54.8A4.364,4.364,0,0,0,46.7,51.1Zm-2.5,9.8a2.4,2.4,0,0,1-1.9.6c-1.3,0-2-.6-2-1.8,0-1.1.7-1.7,2.1-1.7h2.4v1A2.883,2.883,0,0,1,44.2,60.9ZM51.1,50V64h3.3V55.3a2.707,2.707,0,0,1,.6-1.9,2.271,2.271,0,0,1,1.6-.6,2.111,2.111,0,0,1,1.6.6,2.546,2.546,0,0,1,.6,1.9V64h3.4V55.2a2.792,2.792,0,0,1,.6-1.8,2.433,2.433,0,0,1,3.2,0,2.546,2.546,0,0,1,.6,1.9V64H70V54.8a5.538,5.538,0,0,0-1.3-3.7,4.459,4.459,0,0,0-3.5-1.3,5.179,5.179,0,0,0-4,1.8,4.038,4.038,0,0,0-3.6-1.8,4.965,4.965,0,0,0-3.3,1.4V50Zm31,1.1A5.617,5.617,0,0,0,78,49.8a6.342,6.342,0,0,0-3.8,1.1,4.158,4.158,0,0,0-1.4,3.2v.1h3.1v-.1a1.76,1.76,0,0,1,.6-1.3,2.41,2.41,0,0,1,1.5-.4,1.919,1.919,0,0,1,2.2,2.2v1.1H77.3a5.525,5.525,0,0,0-3.6,1.1,3.773,3.773,0,0,0-1.2,3A4.172,4.172,0,0,0,73.6,63,4.547,4.547,0,0,0,77,64.2a3.807,3.807,0,0,0,1.9-.4,4.065,4.065,0,0,0,1.4-1V64h3.3V54.8A4.41,4.41,0,0,0,82.1,51.1Zm-2.5,9.8a2.4,2.4,0,0,1-1.9.6c-1.3,0-2-.6-2-1.8,0-1.1.7-1.7,2.1-1.7h2.4v1A2.883,2.883,0,0,1,79.6,60.9Zm6.9-15.5V64h3.3V55.3a2.707,2.707,0,0,1,.6-1.9,2.523,2.523,0,0,1,1.7-.6,1.887,1.887,0,0,1,1.5.6,2.546,2.546,0,0,1,.6,1.9V64h3.4V54.8a5.489,5.489,0,0,0-1.2-3.7,4.156,4.156,0,0,0-3.3-1.3,4.844,4.844,0,0,0-1.8.3,4.177,4.177,0,0,0-1.5,1.1V45.4Z" transform="translate(-49.15 -54.65)" fill="#36b98c"/></g></g><line y2="51.863" transform="translate(171.4 95.187)" fill="none" stroke="#dadada" stroke-width="1"/></g></svg>